<mxfile host="www.draw.io" modified="2024-03-29T09:47:10.210Z" agent="Mozilla/5.0 (Windows NT 10.0; Win64; x64) AppleWebKit/537.36 (KHTML, like Gecko) Chrome/123.0.0.0 Safari/537.36" etag="PLExeJmFIsPKDAupkgi_" version="24.2.1" type="device">
  <diagram name="Page-1" id="QmJMSDP-vNm0fYPoXkiW">
    <mxGraphModel dx="474" dy="753" grid="1" gridSize="10" guides="1" tooltips="1" connect="1" arrows="1" fold="1" page="1" pageScale="1" pageWidth="827" pageHeight="1169" math="0" shadow="0">
      <root>
        <mxCell id="0" />
        <mxCell id="1" parent="0" />
        <mxCell id="TiIB2TwIAcCOIxwu_zBH-1" value="&lt;font style=&quot;font-size: 16px;&quot;&gt;&lt;b&gt;Input&lt;/b&gt;&lt;/font&gt;" style="rounded=0;whiteSpace=wrap;html=1;fillColor=#f5f5f5;fontColor=#333333;strokeColor=#666666;" vertex="1" parent="1">
          <mxGeometry x="50" y="90" width="70" height="30" as="geometry" />
        </mxCell>
        <mxCell id="TiIB2TwIAcCOIxwu_zBH-4" style="edgeStyle=orthogonalEdgeStyle;rounded=0;orthogonalLoop=1;jettySize=auto;html=1;exitX=0.5;exitY=1;exitDx=0;exitDy=0;entryX=0.5;entryY=0;entryDx=0;entryDy=0;" edge="1" parent="1" source="TiIB2TwIAcCOIxwu_zBH-2" target="TiIB2TwIAcCOIxwu_zBH-3">
          <mxGeometry relative="1" as="geometry" />
        </mxCell>
        <mxCell id="TiIB2TwIAcCOIxwu_zBH-2" value="&lt;font style=&quot;font-size: 16px;&quot;&gt;&lt;b&gt;Input&lt;/b&gt;&lt;/font&gt;" style="rounded=0;whiteSpace=wrap;html=1;fillColor=#f5f5f5;fontColor=#333333;strokeColor=#666666;" vertex="1" parent="1">
          <mxGeometry x="50" y="90" width="70" height="30" as="geometry" />
        </mxCell>
        <mxCell id="TiIB2TwIAcCOIxwu_zBH-6" value="" style="edgeStyle=orthogonalEdgeStyle;rounded=0;orthogonalLoop=1;jettySize=auto;html=1;" edge="1" parent="1" source="TiIB2TwIAcCOIxwu_zBH-3" target="TiIB2TwIAcCOIxwu_zBH-5">
          <mxGeometry relative="1" as="geometry" />
        </mxCell>
        <mxCell id="TiIB2TwIAcCOIxwu_zBH-3" value="&lt;font style=&quot;font-size: 16px;&quot;&gt;&lt;b&gt;Depthwise, 3&lt;/b&gt;&lt;/font&gt;" style="rounded=0;whiteSpace=wrap;html=1;fillColor=#a20025;fontColor=#ffffff;strokeColor=#6F0000;" vertex="1" parent="1">
          <mxGeometry x="35" y="140" width="100" height="40" as="geometry" />
        </mxCell>
        <mxCell id="TiIB2TwIAcCOIxwu_zBH-8" value="" style="edgeStyle=orthogonalEdgeStyle;rounded=0;orthogonalLoop=1;jettySize=auto;html=1;" edge="1" parent="1" source="TiIB2TwIAcCOIxwu_zBH-5" target="TiIB2TwIAcCOIxwu_zBH-7">
          <mxGeometry relative="1" as="geometry" />
        </mxCell>
        <mxCell id="TiIB2TwIAcCOIxwu_zBH-5" value="&lt;font style=&quot;font-size: 16px;&quot;&gt;&lt;b&gt;BN&lt;/b&gt;&lt;/font&gt;" style="rounded=0;whiteSpace=wrap;html=1;fillColor=#fff2cc;strokeColor=#d6b656;" vertex="1" parent="1">
          <mxGeometry x="52.5" y="200" width="65" height="30" as="geometry" />
        </mxCell>
        <mxCell id="TiIB2TwIAcCOIxwu_zBH-10" value="" style="edgeStyle=orthogonalEdgeStyle;rounded=0;orthogonalLoop=1;jettySize=auto;html=1;" edge="1" parent="1" source="TiIB2TwIAcCOIxwu_zBH-7" target="TiIB2TwIAcCOIxwu_zBH-9">
          <mxGeometry relative="1" as="geometry" />
        </mxCell>
        <mxCell id="TiIB2TwIAcCOIxwu_zBH-7" value="&lt;span style=&quot;font-size: 16px;&quot;&gt;&lt;b&gt;ReLU&lt;/b&gt;&lt;/span&gt;" style="rounded=0;whiteSpace=wrap;html=1;fillColor=#dae8fc;strokeColor=#6c8ebf;" vertex="1" parent="1">
          <mxGeometry x="52.5" y="250" width="65" height="30" as="geometry" />
        </mxCell>
        <mxCell id="TiIB2TwIAcCOIxwu_zBH-12" value="" style="edgeStyle=orthogonalEdgeStyle;rounded=0;orthogonalLoop=1;jettySize=auto;html=1;" edge="1" parent="1" source="TiIB2TwIAcCOIxwu_zBH-9" target="TiIB2TwIAcCOIxwu_zBH-11">
          <mxGeometry relative="1" as="geometry" />
        </mxCell>
        <mxCell id="TiIB2TwIAcCOIxwu_zBH-9" value="&lt;span style=&quot;font-size: 16px;&quot;&gt;&lt;b&gt;1 * 1 Conv, 64&lt;/b&gt;&lt;/span&gt;" style="rounded=0;whiteSpace=wrap;html=1;fillColor=#f8cecc;strokeColor=#b85450;" vertex="1" parent="1">
          <mxGeometry x="41.25" y="300" width="87.5" height="40" as="geometry" />
        </mxCell>
        <mxCell id="TiIB2TwIAcCOIxwu_zBH-14" value="" style="edgeStyle=orthogonalEdgeStyle;rounded=0;orthogonalLoop=1;jettySize=auto;html=1;" edge="1" parent="1" source="TiIB2TwIAcCOIxwu_zBH-11" target="TiIB2TwIAcCOIxwu_zBH-13">
          <mxGeometry relative="1" as="geometry" />
        </mxCell>
        <mxCell id="TiIB2TwIAcCOIxwu_zBH-11" value="&lt;font style=&quot;font-size: 16px;&quot;&gt;&lt;b&gt;BN&lt;/b&gt;&lt;/font&gt;" style="rounded=0;whiteSpace=wrap;html=1;fillColor=#fff2cc;strokeColor=#d6b656;" vertex="1" parent="1">
          <mxGeometry x="52.5" y="360" width="65" height="30" as="geometry" />
        </mxCell>
        <mxCell id="TiIB2TwIAcCOIxwu_zBH-27" style="edgeStyle=orthogonalEdgeStyle;rounded=0;orthogonalLoop=1;jettySize=auto;html=1;exitX=0.5;exitY=1;exitDx=0;exitDy=0;entryX=0.5;entryY=0;entryDx=0;entryDy=0;" edge="1" parent="1" source="TiIB2TwIAcCOIxwu_zBH-13" target="TiIB2TwIAcCOIxwu_zBH-16">
          <mxGeometry relative="1" as="geometry" />
        </mxCell>
        <mxCell id="TiIB2TwIAcCOIxwu_zBH-13" value="&lt;span style=&quot;font-size: 16px;&quot;&gt;&lt;b&gt;ReLU&lt;/b&gt;&lt;/span&gt;" style="rounded=0;whiteSpace=wrap;html=1;fillColor=#dae8fc;strokeColor=#6c8ebf;" vertex="1" parent="1">
          <mxGeometry x="52.5" y="410" width="65" height="30" as="geometry" />
        </mxCell>
        <mxCell id="TiIB2TwIAcCOIxwu_zBH-15" value="" style="edgeStyle=orthogonalEdgeStyle;rounded=0;orthogonalLoop=1;jettySize=auto;html=1;" edge="1" parent="1" source="TiIB2TwIAcCOIxwu_zBH-16" target="TiIB2TwIAcCOIxwu_zBH-18">
          <mxGeometry relative="1" as="geometry" />
        </mxCell>
        <mxCell id="TiIB2TwIAcCOIxwu_zBH-16" value="&lt;font style=&quot;font-size: 16px;&quot;&gt;&lt;b&gt;Depthwise, 3&lt;/b&gt;&lt;/font&gt;" style="rounded=0;whiteSpace=wrap;html=1;fillColor=#a20025;fontColor=#ffffff;strokeColor=#6F0000;" vertex="1" parent="1">
          <mxGeometry x="35" y="460" width="100" height="40" as="geometry" />
        </mxCell>
        <mxCell id="TiIB2TwIAcCOIxwu_zBH-17" value="" style="edgeStyle=orthogonalEdgeStyle;rounded=0;orthogonalLoop=1;jettySize=auto;html=1;" edge="1" parent="1" source="TiIB2TwIAcCOIxwu_zBH-18" target="TiIB2TwIAcCOIxwu_zBH-20">
          <mxGeometry relative="1" as="geometry" />
        </mxCell>
        <mxCell id="TiIB2TwIAcCOIxwu_zBH-18" value="&lt;font style=&quot;font-size: 16px;&quot;&gt;&lt;b&gt;BN&lt;/b&gt;&lt;/font&gt;" style="rounded=0;whiteSpace=wrap;html=1;fillColor=#fff2cc;strokeColor=#d6b656;" vertex="1" parent="1">
          <mxGeometry x="52.5" y="520" width="65" height="30" as="geometry" />
        </mxCell>
        <mxCell id="TiIB2TwIAcCOIxwu_zBH-19" value="" style="edgeStyle=orthogonalEdgeStyle;rounded=0;orthogonalLoop=1;jettySize=auto;html=1;" edge="1" parent="1" source="TiIB2TwIAcCOIxwu_zBH-20" target="TiIB2TwIAcCOIxwu_zBH-22">
          <mxGeometry relative="1" as="geometry" />
        </mxCell>
        <mxCell id="TiIB2TwIAcCOIxwu_zBH-20" value="&lt;span style=&quot;font-size: 16px;&quot;&gt;&lt;b&gt;ReLU&lt;/b&gt;&lt;/span&gt;" style="rounded=0;whiteSpace=wrap;html=1;fillColor=#dae8fc;strokeColor=#6c8ebf;" vertex="1" parent="1">
          <mxGeometry x="52.5" y="570" width="65" height="30" as="geometry" />
        </mxCell>
        <mxCell id="TiIB2TwIAcCOIxwu_zBH-21" value="" style="edgeStyle=orthogonalEdgeStyle;rounded=0;orthogonalLoop=1;jettySize=auto;html=1;" edge="1" parent="1" source="TiIB2TwIAcCOIxwu_zBH-22" target="TiIB2TwIAcCOIxwu_zBH-24">
          <mxGeometry relative="1" as="geometry" />
        </mxCell>
        <mxCell id="TiIB2TwIAcCOIxwu_zBH-22" value="&lt;span style=&quot;font-size: 16px;&quot;&gt;&lt;b&gt;1 * 1 Conv, 128&lt;/b&gt;&lt;/span&gt;" style="rounded=0;whiteSpace=wrap;html=1;fillColor=#f8cecc;strokeColor=#b85450;" vertex="1" parent="1">
          <mxGeometry x="41.25" y="620" width="87.5" height="40" as="geometry" />
        </mxCell>
        <mxCell id="TiIB2TwIAcCOIxwu_zBH-23" value="" style="edgeStyle=orthogonalEdgeStyle;rounded=0;orthogonalLoop=1;jettySize=auto;html=1;" edge="1" parent="1" source="TiIB2TwIAcCOIxwu_zBH-24" target="TiIB2TwIAcCOIxwu_zBH-25">
          <mxGeometry relative="1" as="geometry" />
        </mxCell>
        <mxCell id="TiIB2TwIAcCOIxwu_zBH-24" value="&lt;font style=&quot;font-size: 16px;&quot;&gt;&lt;b&gt;BN&lt;/b&gt;&lt;/font&gt;" style="rounded=0;whiteSpace=wrap;html=1;fillColor=#fff2cc;strokeColor=#d6b656;" vertex="1" parent="1">
          <mxGeometry x="52.5" y="680" width="65" height="30" as="geometry" />
        </mxCell>
        <mxCell id="TiIB2TwIAcCOIxwu_zBH-39" style="edgeStyle=orthogonalEdgeStyle;rounded=0;orthogonalLoop=1;jettySize=auto;html=1;exitX=0.5;exitY=1;exitDx=0;exitDy=0;" edge="1" parent="1" source="TiIB2TwIAcCOIxwu_zBH-25" target="TiIB2TwIAcCOIxwu_zBH-29">
          <mxGeometry relative="1" as="geometry" />
        </mxCell>
        <mxCell id="TiIB2TwIAcCOIxwu_zBH-25" value="&lt;span style=&quot;font-size: 16px;&quot;&gt;&lt;b&gt;ReLU&lt;/b&gt;&lt;/span&gt;" style="rounded=0;whiteSpace=wrap;html=1;fillColor=#dae8fc;strokeColor=#6c8ebf;" vertex="1" parent="1">
          <mxGeometry x="52.5" y="730" width="65" height="30" as="geometry" />
        </mxCell>
        <mxCell id="TiIB2TwIAcCOIxwu_zBH-28" value="" style="edgeStyle=orthogonalEdgeStyle;rounded=0;orthogonalLoop=1;jettySize=auto;html=1;" edge="1" parent="1" source="TiIB2TwIAcCOIxwu_zBH-29" target="TiIB2TwIAcCOIxwu_zBH-31">
          <mxGeometry relative="1" as="geometry" />
        </mxCell>
        <mxCell id="TiIB2TwIAcCOIxwu_zBH-29" value="&lt;font style=&quot;font-size: 16px;&quot;&gt;&lt;b&gt;Depthwise, 3&lt;/b&gt;&lt;/font&gt;" style="rounded=0;whiteSpace=wrap;html=1;fillColor=#a20025;fontColor=#ffffff;strokeColor=#6F0000;" vertex="1" parent="1">
          <mxGeometry x="35" y="780" width="100" height="40" as="geometry" />
        </mxCell>
        <mxCell id="TiIB2TwIAcCOIxwu_zBH-30" value="" style="edgeStyle=orthogonalEdgeStyle;rounded=0;orthogonalLoop=1;jettySize=auto;html=1;" edge="1" parent="1" source="TiIB2TwIAcCOIxwu_zBH-31" target="TiIB2TwIAcCOIxwu_zBH-33">
          <mxGeometry relative="1" as="geometry" />
        </mxCell>
        <mxCell id="TiIB2TwIAcCOIxwu_zBH-31" value="&lt;font style=&quot;font-size: 16px;&quot;&gt;&lt;b&gt;BN&lt;/b&gt;&lt;/font&gt;" style="rounded=0;whiteSpace=wrap;html=1;fillColor=#fff2cc;strokeColor=#d6b656;" vertex="1" parent="1">
          <mxGeometry x="52.5" y="840" width="65" height="30" as="geometry" />
        </mxCell>
        <mxCell id="TiIB2TwIAcCOIxwu_zBH-32" value="" style="edgeStyle=orthogonalEdgeStyle;rounded=0;orthogonalLoop=1;jettySize=auto;html=1;" edge="1" parent="1" source="TiIB2TwIAcCOIxwu_zBH-33" target="TiIB2TwIAcCOIxwu_zBH-35">
          <mxGeometry relative="1" as="geometry" />
        </mxCell>
        <mxCell id="TiIB2TwIAcCOIxwu_zBH-33" value="&lt;span style=&quot;font-size: 16px;&quot;&gt;&lt;b&gt;ReLU&lt;/b&gt;&lt;/span&gt;" style="rounded=0;whiteSpace=wrap;html=1;fillColor=#dae8fc;strokeColor=#6c8ebf;" vertex="1" parent="1">
          <mxGeometry x="52.5" y="890" width="65" height="30" as="geometry" />
        </mxCell>
        <mxCell id="TiIB2TwIAcCOIxwu_zBH-34" value="" style="edgeStyle=orthogonalEdgeStyle;rounded=0;orthogonalLoop=1;jettySize=auto;html=1;" edge="1" parent="1" source="TiIB2TwIAcCOIxwu_zBH-35" target="TiIB2TwIAcCOIxwu_zBH-37">
          <mxGeometry relative="1" as="geometry" />
        </mxCell>
        <mxCell id="TiIB2TwIAcCOIxwu_zBH-35" value="&lt;span style=&quot;font-size: 16px;&quot;&gt;&lt;b&gt;1 * 1 Conv, 256&lt;/b&gt;&lt;/span&gt;" style="rounded=0;whiteSpace=wrap;html=1;fillColor=#f8cecc;strokeColor=#b85450;" vertex="1" parent="1">
          <mxGeometry x="41.25" y="940" width="87.5" height="40" as="geometry" />
        </mxCell>
        <mxCell id="TiIB2TwIAcCOIxwu_zBH-36" value="" style="edgeStyle=orthogonalEdgeStyle;rounded=0;orthogonalLoop=1;jettySize=auto;html=1;" edge="1" parent="1" source="TiIB2TwIAcCOIxwu_zBH-37" target="TiIB2TwIAcCOIxwu_zBH-38">
          <mxGeometry relative="1" as="geometry" />
        </mxCell>
        <mxCell id="TiIB2TwIAcCOIxwu_zBH-37" value="&lt;font style=&quot;font-size: 16px;&quot;&gt;&lt;b&gt;BN&lt;/b&gt;&lt;/font&gt;" style="rounded=0;whiteSpace=wrap;html=1;fillColor=#fff2cc;strokeColor=#d6b656;" vertex="1" parent="1">
          <mxGeometry x="52.5" y="1000" width="65" height="30" as="geometry" />
        </mxCell>
        <mxCell id="TiIB2TwIAcCOIxwu_zBH-41" style="edgeStyle=orthogonalEdgeStyle;rounded=0;orthogonalLoop=1;jettySize=auto;html=1;exitX=0.5;exitY=1;exitDx=0;exitDy=0;entryX=0.5;entryY=0;entryDx=0;entryDy=0;" edge="1" parent="1" source="TiIB2TwIAcCOIxwu_zBH-38" target="TiIB2TwIAcCOIxwu_zBH-40">
          <mxGeometry relative="1" as="geometry" />
        </mxCell>
        <mxCell id="TiIB2TwIAcCOIxwu_zBH-38" value="&lt;span style=&quot;font-size: 16px;&quot;&gt;&lt;b&gt;ReLU&lt;/b&gt;&lt;/span&gt;" style="rounded=0;whiteSpace=wrap;html=1;fillColor=#dae8fc;strokeColor=#6c8ebf;" vertex="1" parent="1">
          <mxGeometry x="52.5" y="1050" width="65" height="30" as="geometry" />
        </mxCell>
        <mxCell id="TiIB2TwIAcCOIxwu_zBH-43" value="" style="edgeStyle=orthogonalEdgeStyle;rounded=0;orthogonalLoop=1;jettySize=auto;html=1;" edge="1" parent="1" source="TiIB2TwIAcCOIxwu_zBH-40" target="TiIB2TwIAcCOIxwu_zBH-42">
          <mxGeometry relative="1" as="geometry" />
        </mxCell>
        <mxCell id="TiIB2TwIAcCOIxwu_zBH-40" value="&lt;span style=&quot;font-size: 16px;&quot;&gt;&lt;b&gt;Global Average Pooling&lt;/b&gt;&lt;/span&gt;" style="rounded=0;whiteSpace=wrap;html=1;fillColor=#e1d5e7;strokeColor=#9673a6;" vertex="1" parent="1">
          <mxGeometry x="25.630000000000003" y="1100" width="118.75" height="50" as="geometry" />
        </mxCell>
        <mxCell id="TiIB2TwIAcCOIxwu_zBH-42" value="&lt;font style=&quot;font-size: 16px;&quot;&gt;&lt;b&gt;Output(Softmax)&lt;/b&gt;&lt;/font&gt;" style="rounded=0;whiteSpace=wrap;html=1;fillColor=#f5f5f5;fontColor=#333333;strokeColor=#666666;" vertex="1" parent="1">
          <mxGeometry x="20" y="1180" width="130" height="30" as="geometry" />
        </mxCell>
      </root>
    </mxGraphModel>
  </diagram>
</mxfile>
